# xmcd CD database file
#
# Track frame offsets:
#	150
#	18942
#	36547
#	57464
#	76011
#	88883
#	102668
#	124534
#	143148
#	161980
#
# Disc length: 2428 seconds
#
# Revision: 1
# Processed by: cddbd v1.4PL0 Copyright (c) Steve Scherf et al.
# Submitted via: CDex 1.50Beta7
#
DISCID=87097a0a
DTITLE=Various Artist - Salsa Music
DYEAR=2001
DGENRE=Salsa
TTITLE0=Hijo de la Luna
TTITLE1=1+1=2
TTITLE2=Soy Antinilliana
TTITLE3=Escucha Primo
TTITLE4=Compadre Pedro Juan
TTITLE5=Yerbero Moderno
TTITLE6=Me Canse de Ser
TTITLE7=Burbujas de Amor
TTITLE8=Dime la Verdad
TTITLE9=La Copa de la Vida
EXTD=YEAR: 2001
EXTT0=
EXTT1=
EXTT2=
EXTT3=
EXTT4=
EXTT5=
EXTT6=
EXTT7=
EXTT8=
EXTT9=
PLAYORDER=
